<svg width="13" height="13" viewBox="0 0 13 13" fill="none" xmlns="http://www.w3.org/2000/svg"><path d="M8.18945 6.44922L12.4082 10.6289C12.6426 10.8633 12.6426 11.293 12.4082 11.5273L11.4316 12.5039C11.1973 12.7383 10.7676 12.7383 10.5332 12.5039L6.35352 8.28516L2.13477 12.5039C1.90039 12.7383 1.4707 12.7383 1.23633 12.5039L0.259766 11.5273C0.0253906 11.293 0.0253906 10.8633 0.259766 10.6289L4.47852 6.44922L0.259766 2.23047C0.0253906 1.99609 0.0253906 1.56641 0.259766 1.33203L1.23633 0.355469C1.4707 0.121094 1.90039 0.121094 2.13477 0.355469L6.35352 4.57422L10.5332 0.355469C10.7676 0.121094 11.1973 0.121094 11.4316 0.355469L12.4082 1.33203C12.6426 1.56641 12.6426 1.99609 12.4082 2.23047L8.18945 6.44922Z" fill="white"></path></svg>
