<svg width="32" height="33" viewBox="0 0 32 33" fill="none" xmlns="http://www.w3.org/2000/svg">
<g clip-path="url(#clip0_194_2101)">
<path d="M22.6667 0.5C22.313 0.5 21.9739 0.640476 21.7239 0.890524C21.4738 1.14057 21.3333 1.47971 21.3333 1.83333C21.3333 5.76533 17.8893 7.16667 14.6667 7.16667H5.33333C3.91885 7.16667 2.56229 7.72857 1.5621 8.72876C0.561903 9.72896 0 11.0855 0 12.5L0 15.1667C0.00291222 15.965 0.185949 16.7524 0.53547 17.4701C0.884991 18.1878 1.39198 18.8174 2.01867 19.312L6.78133 29.9413C7.12005 30.7028 7.67223 31.3497 8.37103 31.8038C9.06983 32.2579 9.88528 32.4998 10.7187 32.5C11.3817 32.4996 12.0342 32.3333 12.6166 32.0164C13.199 31.6994 13.693 31.2418 14.0534 30.6853C14.4138 30.1287 14.6294 29.4909 14.6803 28.8297C14.7313 28.1686 14.6162 27.5052 14.3453 26.9L11.412 20.5H14.6667C17.8893 20.5 21.3333 21.9013 21.3333 25.8333C21.3333 26.187 21.4738 26.5261 21.7239 26.7761C21.9739 27.0262 22.313 27.1667 22.6667 27.1667C23.0203 27.1667 23.3594 27.0262 23.6095 26.7761C23.8595 26.5261 24 26.187 24 25.8333V1.83333C24 1.47971 23.8595 1.14057 23.6095 0.890524C23.3594 0.640476 23.0203 0.5 22.6667 0.5V0.5ZM11.916 27.992C12.0043 28.1914 12.0415 28.4098 12.0241 28.6272C12.0067 28.8446 11.9353 29.0543 11.8164 29.2372C11.6975 29.42 11.5348 29.5703 11.3431 29.6744C11.1514 29.7785 10.9368 29.8332 10.7187 29.8333C10.4005 29.8331 10.0893 29.7405 9.82278 29.5668C9.55627 29.393 9.34593 29.1457 9.21733 28.8547L5.47333 20.5H8.47867L11.916 27.992ZM21.3333 19.9667C19.4284 18.4989 17.0698 17.7442 14.6667 17.8333H5.33333C4.62609 17.8333 3.94781 17.5524 3.44772 17.0523C2.94762 16.5522 2.66667 15.8739 2.66667 15.1667V12.5C2.66667 11.7928 2.94762 11.1145 3.44772 10.6144C3.94781 10.1143 4.62609 9.83333 5.33333 9.83333H14.6667C17.069 9.9244 19.4275 9.17204 21.3333 7.70667V19.9667ZM31.8667 21.1027C31.7885 21.2594 31.6801 21.3992 31.5478 21.5141C31.4156 21.629 31.262 21.7167 31.0958 21.7721C30.9296 21.8276 30.7541 21.8498 30.5794 21.8374C30.4046 21.825 30.234 21.7783 30.0773 21.7L27.4107 20.3667C27.0942 20.2086 26.8534 19.9313 26.7414 19.5957C26.6294 19.2601 26.6553 18.8938 26.8133 18.5773C26.9714 18.2608 27.2487 18.0201 27.5843 17.9081C27.9199 17.7961 28.2862 17.8219 28.6027 17.98L31.2693 19.3133C31.5842 19.4713 31.8238 19.7475 31.9357 20.0815C32.0476 20.4155 32.0228 20.7802 31.8667 21.096V21.1027ZM26.8133 9.10267C26.735 8.94597 26.6883 8.77537 26.6759 8.60062C26.6635 8.42587 26.6857 8.25039 26.7412 8.08422C26.7967 7.91804 26.8844 7.76443 26.9992 7.63216C27.1141 7.49988 27.2539 7.39155 27.4107 7.31333L30.0773 5.98C30.3938 5.82193 30.7601 5.79606 31.0957 5.90808C31.4313 6.02011 31.7086 6.26084 31.8667 6.57733C32.0247 6.89383 32.0506 7.26015 31.9386 7.59571C31.8266 7.93128 31.5858 8.2086 31.2693 8.36667L28.6027 9.7C28.446 9.77834 28.2754 9.82504 28.1006 9.83741C27.9259 9.84979 27.7504 9.82761 27.5842 9.77214C27.418 9.71666 27.2644 9.62898 27.1322 9.51411C26.9999 9.39924 26.8915 9.25943 26.8133 9.10267V9.10267ZM26.6667 13.8333C26.6667 13.4797 26.8071 13.1406 27.0572 12.8905C27.3072 12.6405 27.6464 12.5 28 12.5H30.6667C31.0203 12.5 31.3594 12.6405 31.6095 12.8905C31.8595 13.1406 32 13.4797 32 13.8333C32 14.187 31.8595 14.5261 31.6095 14.7761C31.3594 15.0262 31.0203 15.1667 30.6667 15.1667H28C27.6464 15.1667 27.3072 15.0262 27.0572 14.7761C26.8071 14.5261 26.6667 14.187 26.6667 13.8333Z" fill="#FBCA1C"/>
</g>
<defs>
<clipPath id="clip0_194_2101">
<rect width="32" height="32" fill="white" transform="translate(0 0.5)"/>
</clipPath>
</defs>
</svg>
