<svg width="32" height="33" viewBox="0 0 32 33" fill="none" xmlns="http://www.w3.org/2000/svg">
<g clip-path="url(#clip0_194_2095)">
<path d="M16 0.5C12.8355 0.5 9.74207 1.43838 7.11088 3.19649C4.4797 4.95459 2.42894 7.45345 1.21793 10.3771C0.00693258 13.3007 -0.309921 16.5177 0.307443 19.6214C0.924806 22.7251 2.44866 25.5761 4.6863 27.8137C6.92394 30.0514 9.77487 31.5752 12.8786 32.1926C15.9823 32.8099 19.1993 32.4931 22.1229 31.2821C25.0466 30.0711 27.5454 28.0203 29.3035 25.3891C31.0616 22.7579 32 19.6645 32 16.5C31.9954 12.2579 30.3082 8.19095 27.3087 5.19136C24.3091 2.19177 20.2421 0.504588 16 0.5V0.5ZM29.3333 16.5C29.3349 19.1129 28.5639 21.668 27.1173 23.844L25.528 22.2533C25.4034 22.1284 25.3334 21.9591 25.3333 21.7827V20.5C25.3333 19.4391 24.9119 18.4217 24.1618 17.6716C23.4116 16.9214 22.3942 16.5 21.3333 16.5H17.3333C16.9797 16.5 16.6406 16.3595 16.3905 16.1095C16.1405 15.8594 16 15.5203 16 15.1667V14.5C16 14.3232 16.0702 14.1536 16.1953 14.0286C16.3203 13.9036 16.4899 13.8333 16.6667 13.8333C17.5507 13.8333 18.3986 13.4821 19.0237 12.857C19.6488 12.2319 20 11.3841 20 10.5V9.16667C20 8.98986 20.0702 8.82029 20.1953 8.69526C20.3203 8.57024 20.4899 8.5 20.6667 8.5H22.5053C23.3885 8.49749 24.2351 8.14679 24.8613 7.524L25.364 7.02133C26.6216 8.25877 27.6202 9.73419 28.3017 11.3616C28.9832 12.9889 29.3339 14.7357 29.3333 16.5ZM2.73201 17.784L6.94267 21.9947C7.31321 22.3676 7.75411 22.6632 8.2398 22.8644C8.72549 23.0656 9.2463 23.1683 9.77201 23.1667H13.3333C13.687 23.1667 14.0261 23.3071 14.2761 23.5572C14.5262 23.8072 14.6667 24.1464 14.6667 24.5V29.7653C11.6003 29.4523 8.73653 28.0882 6.56124 25.9044C4.38596 23.7206 3.03305 20.8516 2.73201 17.784ZM17.3333 29.7653V24.5C17.3333 23.4391 16.9119 22.4217 16.1618 21.6716C15.4116 20.9214 14.3942 20.5 13.3333 20.5H9.77201C9.5967 20.5001 9.42309 20.4657 9.26111 20.3987C9.09912 20.3316 8.95195 20.2333 8.82801 20.1093L2.88401 14.1653C3.26558 11.9963 4.17966 9.95586 5.54424 8.22718C6.90882 6.49849 8.68122 5.13561 10.7024 4.26082C12.7236 3.38603 14.9303 3.02669 17.1246 3.21504C19.3189 3.4034 21.4321 4.13355 23.2747 5.34L22.976 5.63867C22.8505 5.76244 22.6816 5.83229 22.5053 5.83333H20.6667C19.7826 5.83333 18.9348 6.18452 18.3097 6.80964C17.6845 7.43477 17.3333 8.28261 17.3333 9.16667V10.5C17.3333 10.6768 17.2631 10.8464 17.1381 10.9714C17.0131 11.0964 16.8435 11.1667 16.6667 11.1667C15.7826 11.1667 14.9348 11.5179 14.3097 12.143C13.6845 12.7681 13.3333 13.6159 13.3333 14.5V15.1667C13.3333 16.2275 13.7548 17.245 14.5049 17.9951C15.2551 18.7452 16.2725 19.1667 17.3333 19.1667H21.3333C21.687 19.1667 22.0261 19.3071 22.2762 19.5572C22.5262 19.8072 22.6667 20.1464 22.6667 20.5V21.7827C22.6692 22.6659 23.0199 23.5124 23.6427 24.1387L25.4253 25.9213C23.254 28.1003 20.3942 29.4588 17.3333 29.7653Z" fill="#FBCA1C"/>
</g>
<defs>
<clipPath id="clip0_194_2095">
<rect width="32" height="32" fill="white" transform="translate(0 0.5)"/>
</clipPath>
</defs>
</svg>
