<svg width="32" height="33" viewBox="0 0 32 33" fill="none" xmlns="http://www.w3.org/2000/svg">
<path fill-rule="evenodd" clip-rule="evenodd" d="M25.8564 8.5L18 3.96411C16.7624 3.24957 15.2376 3.24957 14 3.96411L6.14355 8.5C4.90595 9.21454 4.14355 10.535 4.14355 11.9641V21.0359C4.14355 22.465 4.90595 23.7855 6.14355 24.5L14 29.0359C15.2376 29.7504 16.7624 29.7504 18 29.0359L25.8564 24.5C27.094 23.7855 27.8564 22.465 27.8564 21.0359V11.9641C27.8564 10.535 27.094 9.21454 25.8564 8.5ZM19 2.23205C17.1436 1.16026 14.8564 1.16026 13 2.23205L5.14355 6.76795C3.28715 7.83975 2.14355 9.82051 2.14355 11.9641V21.0359C2.14355 23.1795 3.28715 25.1603 5.14355 26.2321L13 30.768C14.8564 31.8398 17.1436 31.8398 19 30.768L26.8564 26.2321C28.7128 25.1603 29.8564 23.1795 29.8564 21.0359V11.9641C29.8564 9.82051 28.7128 7.83975 26.8564 6.76795L19 2.23205Z" fill="#FBCA1C"/>
<path d="M21.75 11.1172L13.5312 19.3359L10.5312 16.3047C10.375 16.1797 10.125 16.1797 10 16.3047L9.09375 17.2109C8.96875 17.3359 8.96875 17.5859 9.09375 17.7422L13.2812 21.8984C13.4375 22.0547 13.6562 22.0547 13.8125 21.8984L23.1875 12.5234C23.3125 12.3984 23.3125 12.1484 23.1875 11.9922L22.2812 11.1172C22.1562 10.9609 21.9062 10.9609 21.75 11.1172Z" fill="#FBCA1C"/>
</svg>
