<svg width="32" height="33" viewBox="0 0 32 33" fill="none" xmlns="http://www.w3.org/2000/svg">
<g clip-path="url(#clip0_194_2026)">
<path d="M30.8283 12.5919L20.7149 2.47723C19.4633 1.22922 17.7678 0.528397 16.0003 0.528397C14.2327 0.528397 12.5373 1.22922 11.2856 2.47723L1.17226 12.5919C0.799494 12.9623 0.503953 13.403 0.30277 13.8884C0.101587 14.3739 -0.00123639 14.8944 0.000260247 15.4199V28.5092C0.000260247 29.5701 0.421688 30.5875 1.17183 31.3377C1.92198 32.0878 2.93939 32.5092 4.00026 32.5092H28.0003C29.0611 32.5092 30.0785 32.0878 30.8287 31.3377C31.5788 30.5875 32.0003 29.5701 32.0003 28.5092V15.4199C32.0018 14.8944 31.8989 14.3739 31.6977 13.8884C31.4966 13.403 31.201 12.9623 30.8283 12.5919V12.5919ZM20.0003 29.8426H12.0003V24.5972C12.0003 23.5364 12.4217 22.519 13.1718 21.7688C13.922 21.0187 14.9394 20.5972 16.0003 20.5972C17.0611 20.5972 18.0785 21.0187 18.8287 21.7688C19.5788 22.519 20.0003 23.5364 20.0003 24.5972V29.8426ZM29.3336 28.5092C29.3336 28.8629 29.1931 29.202 28.9431 29.452C28.693 29.7021 28.3539 29.8426 28.0003 29.8426H22.6669V24.5972C22.6669 22.8291 21.9645 21.1334 20.7143 19.8832C19.4641 18.6329 17.7684 17.9306 16.0003 17.9306C14.2322 17.9306 12.5365 18.6329 11.2862 19.8832C10.036 21.1334 9.33359 22.8291 9.33359 24.5972V29.8426H4.00026C3.64664 29.8426 3.3075 29.7021 3.05745 29.452C2.8074 29.202 2.66693 28.8629 2.66693 28.5092V15.4199C2.66816 15.0665 2.80851 14.7279 3.05759 14.4772L13.1709 4.36656C13.9225 3.61847 14.9398 3.19849 16.0003 3.19849C17.0607 3.19849 18.078 3.61847 18.8296 4.36656L28.9429 14.4812C29.191 14.7309 29.3313 15.0679 29.3336 15.4199V28.5092Z" fill="#FBCA1C"/>
</g>
<defs>
<clipPath id="clip0_194_2026">
<rect width="32" height="32" fill="white" transform="translate(0 0.5)"/>
</clipPath>
</defs>
</svg>
