<svg width="32" height="33" viewBox="0 0 32 33" fill="none" xmlns="http://www.w3.org/2000/svg">
<g clip-path="url(#clip0_194_2064)">
<path d="M31.609 30.2249L23.6504 22.2663C25.8192 19.6137 26.8855 16.2291 26.6288 12.8124C26.3721 9.39565 24.812 6.20832 22.2712 3.90964C19.7303 1.61096 16.4032 0.376802 12.9779 0.462444C9.55263 0.548086 6.29131 1.94698 3.86853 4.36976C1.44574 6.79255 0.0468505 10.0539 -0.038792 13.4791C-0.124434 16.9044 1.10972 20.2316 3.4084 22.7724C5.70708 25.3132 8.89442 26.8734 12.3111 27.1301C15.7278 27.3868 19.1125 26.3204 21.765 24.1516L29.7237 32.1103C29.9752 32.3532 30.312 32.4876 30.6616 32.4845C31.0112 32.4815 31.3456 32.3412 31.5928 32.094C31.84 31.8468 31.9802 31.5124 31.9833 31.1628C31.9863 30.8132 31.8519 30.4764 31.609 30.2249ZM13.333 24.5009C11.2234 24.5009 9.16108 23.8754 7.40696 22.7033C5.65284 21.5312 4.28566 19.8653 3.47833 17.9162C2.67099 15.9672 2.45976 13.8224 2.87133 11.7533C3.28291 9.68418 4.29881 7.78357 5.79057 6.29181C7.28233 4.80005 9.18295 3.78414 11.2521 3.37257C13.3212 2.96099 15.4659 3.17223 17.415 3.97956C19.3641 4.7869 21.03 6.15407 22.2021 7.9082C23.3741 9.66232 23.9997 11.7246 23.9997 13.8343C23.9965 16.6623 22.8717 19.3735 20.872 21.3732C18.8723 23.3729 16.161 24.4978 13.333 24.5009Z" fill="#FBCA1C"/>
</g>
<defs>
<clipPath id="clip0_194_2064">
<rect width="32" height="32" fill="white" transform="translate(0 0.5)"/>
</clipPath>
</defs>
</svg>
