<svg width="216" height="64" viewBox="0 0 216 64" fill="none" xmlns="http://www.w3.org/2000/svg">
<g clip-path="url(#clip0_73_2350)">
<path fill-rule="evenodd" clip-rule="evenodd" d="M16.7992 0H0V7.19466H16.7992V0ZM7.21507 7.19472H0V16.7518H7.21507V7.19472Z" fill="#7979E2"/>
<path fill-rule="evenodd" clip-rule="evenodd" d="M34 63.7518H50.7992V56.5571H34V63.7518ZM43.5842 56.557H50.7993V47H43.5842V56.557Z" fill="#7979E2"/>
<path fill-rule="evenodd" clip-rule="evenodd" d="M11.1074 19H4V61.0939H11.1041V61.0941H31.0263V54.0069H11.1074V19Z" fill="#5A5B75"/>
<path fill-rule="evenodd" clip-rule="evenodd" d="M39.9189 45.0942H47.0263V3.0002H39.9222V3H20V10.0873H39.9189V45.0942Z" fill="#5A5B75"/>
<path d="M20.5842 10H11V19.557H20.5842V10Z" fill="#7979E2"/>
<path d="M74.876 17V45.4375H69V17H74.876ZM86.2365 29.1485V33.7188H73.2699V29.1485H86.2365ZM87.6076 17V21.5898H73.2699V17H87.6076ZM95.7948 28.9141V45.4375H90.1532V24.3047H95.4618L95.7948 28.9141ZM102.18 24.168L102.082 29.3828C101.808 29.3438 101.475 29.3112 101.083 29.2852C100.705 29.2461 100.358 29.2266 100.045 29.2266C99.2486 29.2266 98.5562 29.3307 97.9689 29.5391C97.3945 29.7344 96.9107 30.0274 96.5192 30.418C96.1406 30.8086 95.8533 31.2838 95.6576 31.8438C95.4747 32.4037 95.3704 33.0417 95.3439 33.7578L94.2079 33.4062C94.2079 32.0391 94.3451 30.7826 94.6195 29.6367C94.8938 28.4779 95.2918 27.4688 95.814 26.6094C96.3491 25.75 97.0022 25.0859 97.7732 24.6172C98.5434 24.1485 99.4242 23.9141 100.417 23.9141C100.73 23.9141 101.05 23.9402 101.377 23.9922C101.703 24.0313 101.971 24.0898 102.18 24.168ZM115.616 40.6719V31.2578C115.616 30.5807 115.505 30.0014 115.284 29.5195C115.061 29.0247 114.716 28.6406 114.245 28.3672C113.788 28.0938 113.194 27.957 112.463 27.957C111.836 27.957 111.294 28.0678 110.837 28.2891C110.38 28.4974 110.028 28.8034 109.779 29.207C109.531 29.5977 109.407 30.0599 109.407 30.5938H103.766C103.766 29.6954 103.976 28.8425 104.393 28.0352C104.811 27.2279 105.418 26.5182 106.215 25.9062C107.011 25.2813 107.958 24.793 109.055 24.4414C110.165 24.0898 111.405 23.9141 112.776 23.9141C114.421 23.9141 115.884 24.1875 117.163 24.7344C118.444 25.2813 119.449 26.1016 120.18 27.1954C120.924 28.2891 121.297 29.6562 121.297 31.2969V40.3398C121.297 41.4987 121.368 42.4492 121.512 43.1914C121.655 43.9206 121.865 44.5586 122.139 45.1055V45.4375H116.439C116.164 44.8646 115.956 44.1485 115.812 43.2891C115.681 42.4167 115.616 41.5443 115.616 40.6719ZM116.36 32.5664L116.399 35.75H113.247C112.502 35.75 111.855 35.8346 111.307 36.0039C110.759 36.1732 110.309 36.4141 109.956 36.7266C109.603 37.0261 109.342 37.3776 109.173 37.7813C109.015 38.1849 108.938 38.6276 108.938 39.1094C108.938 39.5912 109.048 40.0274 109.271 40.418C109.492 40.7956 109.812 41.095 110.23 41.3164C110.648 41.5247 111.137 41.629 111.699 41.629C112.548 41.629 113.285 41.4597 113.912 41.1211C114.539 40.7826 115.022 40.3659 115.361 39.8711C115.714 39.3763 115.897 38.9076 115.91 38.4649L117.398 40.8477C117.19 41.3815 116.902 41.9349 116.537 42.5078C116.184 43.0807 115.734 43.6211 115.186 44.129C114.637 44.6237 113.977 45.0338 113.207 45.3594C112.437 45.6719 111.522 45.8282 110.465 45.8282C109.12 45.8282 107.899 45.5612 106.802 45.0274C105.719 44.4805 104.856 43.7318 104.217 42.7813C103.59 41.8178 103.277 40.724 103.277 39.5C103.277 38.3933 103.485 37.4102 103.903 36.5508C104.321 35.6914 104.935 34.9688 105.745 34.3828C106.567 33.7838 107.592 33.3346 108.82 33.0352C110.047 32.7226 111.47 32.5664 113.089 32.5664H116.36ZM131.286 28.6797V45.4375H125.625V24.3047H130.933L131.286 28.6797ZM130.502 34.129H128.935C128.935 32.6576 129.111 31.3034 129.464 30.0664C129.829 28.8164 130.358 27.7357 131.051 26.8242C131.756 25.8998 132.624 25.1836 133.656 24.6758C134.687 24.168 135.882 23.9141 137.24 23.9141C138.18 23.9141 139.042 24.0573 139.826 24.3438C140.609 24.6172 141.281 25.0534 141.843 25.6524C142.417 26.2383 142.862 27.0066 143.174 27.957C143.488 28.8946 143.645 30.0209 143.645 31.3359V45.4375H138.004V31.961C138.004 30.9974 137.873 30.2552 137.612 29.7344C137.351 29.2136 136.979 28.849 136.496 28.6406C136.025 28.4323 135.457 28.3282 134.792 28.3282C134.061 28.3282 133.42 28.4779 132.872 28.7774C132.337 29.0769 131.893 29.4935 131.54 30.0274C131.188 30.5482 130.926 31.1602 130.757 31.8633C130.587 32.5664 130.502 33.3216 130.502 34.129ZM143.116 33.4844L141.098 33.7383C141.098 32.3581 141.268 31.0755 141.608 29.8906C141.961 28.7058 142.476 27.6641 143.155 26.7657C143.848 25.8672 144.703 25.1706 145.721 24.6758C146.74 24.168 147.915 23.9141 149.247 23.9141C150.265 23.9141 151.192 24.0638 152.027 24.3633C152.863 24.6498 153.575 25.112 154.163 25.75C154.763 26.375 155.221 27.1954 155.534 28.211C155.861 29.2266 156.024 30.4701 156.024 31.9414V45.4375H150.363V31.9414C150.363 30.9649 150.233 30.2226 149.971 29.7149C149.723 29.194 149.358 28.8359 148.875 28.6406C148.404 28.4323 147.843 28.3282 147.19 28.3282C146.511 28.3282 145.917 28.4649 145.408 28.7383C144.899 28.9987 144.474 29.3633 144.135 29.8321C143.795 30.3008 143.54 30.8477 143.37 31.4726C143.201 32.0846 143.116 32.7552 143.116 33.4844ZM170.146 45.8282C168.5 45.8282 167.025 45.5678 165.719 45.0469C164.413 44.513 163.303 43.7774 162.39 42.8398C161.488 41.9024 160.796 40.8151 160.313 39.5782C159.83 38.3282 159.588 37 159.588 35.5938V34.8126C159.588 33.211 159.817 31.7461 160.274 30.418C160.731 29.0898 161.384 27.9375 162.232 26.961C163.094 25.9844 164.139 25.2357 165.366 24.7149C166.594 24.181 167.978 23.9141 169.519 23.9141C171.02 23.9141 172.352 24.1614 173.515 24.6562C174.676 25.151 175.65 25.8542 176.433 26.7657C177.229 27.6771 177.83 28.7709 178.235 30.0469C178.64 31.3099 178.842 32.7162 178.842 34.2657V36.6094H161.997V32.8594H173.299V32.4297C173.299 31.6485 173.155 30.9518 172.868 30.3398C172.594 29.7149 172.176 29.2201 171.615 28.8555C171.053 28.4909 170.335 28.3086 169.46 28.3086C168.716 28.3086 168.076 28.4714 167.54 28.7969C167.005 29.1224 166.568 29.5782 166.228 30.1641C165.902 30.75 165.654 31.4402 165.484 32.2344C165.328 33.0157 165.249 33.875 165.249 34.8126V35.5938C165.249 36.4402 165.366 37.2214 165.601 37.9375C165.85 38.6537 166.196 39.2722 166.639 39.793C167.097 40.3138 167.645 40.7174 168.285 41.0039C168.938 41.2904 169.676 41.4336 170.498 41.4336C171.516 41.4336 172.464 41.2383 173.338 40.8477C174.226 40.444 174.99 39.8386 175.629 39.0313L178.372 42C177.928 42.6381 177.321 43.25 176.55 43.8359C175.793 44.4219 174.879 44.9037 173.808 45.2813C172.737 45.6458 171.516 45.8282 170.146 45.8282ZM198.644 17V45.4375H192.788V17H198.644ZM214.176 24.3047V28.2891H201.836V24.3047H214.176ZM204.892 19.0898H210.533V39.0703C210.533 39.6823 210.612 40.151 210.768 40.4766C210.938 40.8021 211.186 41.03 211.513 41.1602C211.839 41.2774 212.251 41.3359 212.746 41.3359C213.099 41.3359 213.412 41.323 213.687 41.2969C213.974 41.2578 214.215 41.2188 214.411 41.1797L214.431 45.3203C213.947 45.4766 213.425 45.6003 212.864 45.6914C212.303 45.7826 211.683 45.8282 211.003 45.8282C209.763 45.8282 208.679 45.6263 207.752 45.2226C206.838 44.806 206.133 44.1419 205.637 43.2305C205.14 42.319 204.892 41.1211 204.892 39.6367V19.0898Z" fill="white"/>
</g>
<defs>
<clipPath id="clip0_73_2350">
<rect width="215.089" height="64" fill="white" transform="translate(0.455688)"/>
</clipPath>
</defs>
</svg>
