<svg width="32" height="32" viewBox="0 0 32 32" fill="none" xmlns="http://www.w3.org/2000/svg"><g>
<path class="verified--inner" d="M13.0009 2.73207C14.8573 1.66027 17.1445 1.66027 19.0009 2.73207L26.8573 7.26797C28.7138 8.33977 29.8573 10.3205 29.8573 12.4641V21.5359C29.8573 23.6795 28.7138 25.6603 26.8573 26.7321L19.0009 31.268C17.1445 32.3398 14.8573 32.3398 13.0009 31.268L5.14453 26.7321C3.28812 25.6603 2.14453 23.6795 2.14453 21.5359V12.4641C2.14453 10.3205 3.28812 8.33977 5.14453 7.26797L13.0009 2.73207Z" fill= '#fbca1c'></path>
<path class="verified--outer" fill-rule="evenodd" clip-rule="evenodd" d="M25.8573 9.00002L18.0009 4.46412C16.7633 3.74959 15.2385 3.74959 14.0009 4.46412L6.14453 9.00002C4.90693 9.71455 4.14453 11.0351 4.14453 12.4641V21.5359C4.14453 22.965 4.90693 24.2855 6.14453 25L14.0009 29.5359C15.2385 30.2504 16.7633 30.2504 18.0009 29.5359L25.8573 25C27.0949 24.2855 27.8573 22.965 27.8573 21.5359V12.4641C27.8573 11.0351 27.0949 9.71455 25.8573 9.00002ZM19.0009 2.73207C17.1445 1.66027 14.8573 1.66027 13.0009 2.73207L5.14453 7.26797C3.28812 8.33977 2.14453 10.3205 2.14453 12.4641V21.5359C2.14453 23.6795 3.28813 25.6603 5.14453 26.7321L13.0009 31.268C14.8573 32.3398 17.1445 32.3398 19.0009 31.268L26.8573 26.7321C28.7138 25.6603 29.8573 23.6795 29.8573 21.5359V12.4641C29.8573 10.3205 28.7138 8.33977 26.8573 7.26797L19.0009 2.73207Z" fill= '#fbca1c'></path>
<path d="M21.75 11.6172L13.5312 19.8359L10.5312 16.8047C10.375 16.6797 10.125 16.6797 10 16.8047L9.09375 17.7109C8.96875 17.8359 8.96875 18.0859 9.09375 18.2422L13.2812 22.3984C13.4375 22.5547 13.6562 22.5547 13.8125 22.3984L23.1875 13.0234C23.3125 12.8984 23.3125 12.6484 23.1875 12.4922L22.2812 11.6172C22.1562 11.4609 21.9062 11.4609 21.75 11.6172Z" fill="#000"></path></g></svg>
